# xmcd CD database file
#
# Track frame offsets:
#	150
#	15258
#	38120
#	56175
#	76010
#	96413
#	111453
#	126965
#	133980
#	157225
#	167438
#	183363
#	195328
#	203498
#
# Disc length: 2914 seconds
#
# Revision: 0
# Processed by: cddbd v1.5.2PL0 Copyright (c) Steve Scherf et al.
# Submitted via: CDex 1.51
#
DISCID=b90b600e
DTITLE=Tribute album - BOSSA NOVA felt from A.C.JOBIN
DYEAR=2004
DGENRE=Jazz
TTITLE0=DESAFINADE
TTITLE1=DINDI
TTITLE2=THE GIRL FROM IPANEMA
TTITLE3=AGUA DE BEBER
TTITLE4=CORCOVADO
TTITLE5=WAVE
TTITLE6=FOTOGRAFIA
TTITLE7=FELICIDADE
TTITLE8=OUTRA VEZ
TTITLE9=ESPERANCA PERDIDA
TTITLE10=ELA E CARIOCA
TTITLE11=QUIET NIGHTS OF QUIET  STARS
TTITLE12=SO DANCO SAMBA
TTITLE13=HOW INSENSITIVE
EXTD=YEAR: 2004
EXTT0=
EXTT1=
EXTT2=
EXTT3=
EXTT4=
EXTT5=
EXTT6=
EXTT7=
EXTT8=
EXTT9=
EXTT10=
EXTT11=
EXTT12=
EXTT13=
PLAYORDER=
